<?xml version="1.0" standalone="no"?>
<!DOCTYPE svg PUBLIC "-//W3C//DTD SVG 20010904//EN"
 "http://www.w3.org/TR/2001/REC-SVG-20010904/DTD/svg10.dtd">
<svg version="1.0" xmlns="http://www.w3.org/2000/svg"
 width="24.000000pt" height="24.000000pt" viewBox="0 0 24.000000 24.000000"
 preserveAspectRatio="xMidYMid meet">

<g transform="translate(0.000000,24.000000) scale(0.100000,-0.100000)"
fill="#000000" stroke="none">
<path d="M75 225 c-93 -33 -99 -123 -12 -170 20 -11 37 -26 37 -32 0 -19 20
-16 63 10 41 25 77 71 77 100 0 32 -28 74 -57 85 -52 20 -68 21 -108 7z m-4
-105 c5 0 9 9 9 19 0 11 5 23 10 26 6 4 10 -7 10 -24 0 -28 -3 -31 -30 -31
-25 0 -30 4 -30 23 0 34 14 44 18 13 2 -14 8 -26 13 -26z m111 41 c-14 -9 -13
-32 3 -43 6 -4 -5 -8 -22 -8 -20 0 -33 5 -33 13 0 8 -4 7 -10 -3 -7 -12 -10
-8 -10 15 0 28 2 30 42 32 24 1 37 -2 30 -6z"/>
</g>
</svg>
